<svg width="24" height="25" viewBox="0 0 24 25" fill="none" xmlns="http://www.w3.org/2000/svg">
<path fill-rule="evenodd" clip-rule="evenodd" d="M15 10.0503C15 12.8117 12.7614 15.0503 10 15.0503C7.23858 15.0503 5 12.8117 5 10.0503C5 7.28885 7.23858 5.05028 10 5.05028C12.7614 5.05028 15 7.28885 15 10.0503ZM13.594 16.0584C12.5434 16.6882 11.314 17.0503 10 17.0503C6.13401 17.0503 3 13.9163 3 10.0503C3 6.18428 6.13401 3.05028 10 3.05028C13.866 3.05028 17 6.18428 17 10.0503C17 11.8779 16.2996 13.5419 15.1526 14.7886L19.2071 18.8432C19.5976 19.2337 19.5976 19.8669 19.2071 20.2574C18.8166 20.6479 18.1834 20.6479 17.7929 20.2574L13.594 16.0584Z" fill="black"/>
<path fill-rule="evenodd" clip-rule="evenodd" d="M15 10.0503C15 12.8117 12.7614 15.0503 10 15.0503C7.23858 15.0503 5 12.8117 5 10.0503C5 7.28885 7.23858 5.05028 10 5.05028C12.7614 5.05028 15 7.28885 15 10.0503ZM13.594 16.0584C12.5434 16.6882 11.314 17.0503 10 17.0503C6.13401 17.0503 3 13.9163 3 10.0503C3 6.18428 6.13401 3.05028 10 3.05028C13.866 3.05028 17 6.18428 17 10.0503C17 11.8779 16.2996 13.5419 15.1526 14.7886L19.2071 18.8432C19.5976 19.2337 19.5976 19.8669 19.2071 20.2574C18.8166 20.6479 18.1834 20.6479 17.7929 20.2574L13.594 16.0584Z" fill="#2A59FE" fill-opacity="0.3"/>
<path fill-rule="evenodd" clip-rule="evenodd" d="M15 10.0503C15 12.8117 12.7614 15.0503 10 15.0503C7.23858 15.0503 5 12.8117 5 10.0503C5 7.28885 7.23858 5.05028 10 5.05028C12.7614 5.05028 15 7.28885 15 10.0503ZM13.594 16.0584C12.5434 16.6882 11.314 17.0503 10 17.0503C6.13401 17.0503 3 13.9163 3 10.0503C3 6.18428 6.13401 3.05028 10 3.05028C13.866 3.05028 17 6.18428 17 10.0503C17 11.8779 16.2996 13.5419 15.1526 14.7886L19.2071 18.8432C19.5976 19.2337 19.5976 19.8669 19.2071 20.2574C18.8166 20.6479 18.1834 20.6479 17.7929 20.2574L13.594 16.0584Z" fill="white" fill-opacity="0.5"/>
</svg>
